# xmcd
#
# Track frame offsets: 
#        150
#        15871
#        29620
#        42589
#        58933
#        73270
#        85964
#        98995
#        111594
#        124298
#        137360
#        149301
#        161635
#        174619
#        189393
#        200730
#
# Disc length: 2858 seconds
#
# Revision: 0
# Processed by: cddbd v1.5.2PL0 Copyright (c) Steve Scherf et al.
# Submitted via: ExactAudioCopy v0.90b4
#
DISCID=f20b2810
DTITLE=Sonny Terry - Whoopin' the Blues - Capitol Recordings 1947-1950
DYEAR=1995
DGENRE=Blues
TTITLE0=Telephone Blues
TTITLE1=Custard Pie Blues
TTITLE2=Riff and Harmonica Jump
TTITLE3=Mad Man Blues
TTITLE4=All Alone Blues
TTITLE5=Dirty Mistreater
TTITLE6=Early Morning Blues
TTITLE7=Whoopin' the Blues
TTITLE8=Beer Garden Blues
TTITLE9=Screaming and Crying the Blues
TTITLE10=Crow Jane Blues
TTITLE11=Worried Man Blues
TTITLE12=Airplane Blues
TTITLE13=Hot Headed Woman
TTITLE14=Harmonica Rag
TTITLE15=Leavin' Blues
EXTD=
EXTT0=
EXTT1=
EXTT2=
EXTT3=
EXTT4=
EXTT5=
EXTT6=
EXTT7=
EXTT8=
EXTT9=
EXTT10=
EXTT11=
EXTT12=
EXTT13=
EXTT14=
EXTT15=
PLAYORDER=
